<svg width="655" height="19" viewBox="0 0 655 19" fill="none" xmlns="http://www.w3.org/2000/svg">
<path d="M2.254 14H1.092V4.662H7.21V5.698H2.254V14ZM6.55473 14.168V13.3C6.87207 13.3 7.1334 13.09 7.33873 12.67C7.54407 12.25 7.71207 11.55 7.84273 10.57L8.27673 7.238H12.9807V14H11.9307V8.162H9.20073L8.89273 10.696C8.7434 11.9373 8.48207 12.8287 8.10873 13.37C7.7354 13.902 7.2174 14.168 6.55473 14.168ZM20.3553 14H19.3053V13.23C18.736 13.8553 17.9893 14.168 17.0653 14.168C16.44 14.168 15.8893 13.9673 15.4133 13.566C14.9373 13.1647 14.6993 12.6187 14.6993 11.928C14.6993 11.2187 14.9327 10.6727 15.3993 10.29C15.8753 9.898 16.4307 9.702 17.0653 9.702C18.0267 9.702 18.7733 10.01 19.3053 10.626V9.408C19.3053 8.96 19.1467 8.61 18.8293 8.358C18.512 8.106 18.1013 7.98 17.5973 7.98C16.804 7.98 16.1133 8.29267 15.5253 8.918L15.0353 8.19C15.754 7.44333 16.6547 7.07 17.7373 7.07C18.512 7.07 19.142 7.25667 19.6273 7.63C20.1127 8.00333 20.3553 8.57733 20.3553 9.352V14ZM17.4433 13.412C18.2833 13.412 18.904 13.132 19.3053 12.572V11.298C18.904 10.738 18.2833 10.458 17.4433 10.458C16.958 10.458 16.5567 10.598 16.2393 10.878C15.9313 11.1487 15.7773 11.5033 15.7773 11.942C15.7773 12.3713 15.9313 12.726 16.2393 13.006C16.5567 13.2767 16.958 13.412 17.4433 13.412ZM26.2542 14H22.4602V7.238H26.1842C26.7722 7.238 27.2342 7.39667 27.5702 7.714C27.9155 8.03133 28.0882 8.45133 28.0882 8.974C28.0882 9.35667 27.9808 9.688 27.7662 9.968C27.5608 10.2387 27.3042 10.4207 26.9962 10.514C27.3415 10.598 27.6308 10.7987 27.8642 11.116C28.1068 11.4333 28.2282 11.7833 28.2282 12.166C28.2282 12.7167 28.0508 13.16 27.6962 13.496C27.3508 13.832 26.8702 14 26.2542 14ZM26.0442 13.076C26.3802 13.076 26.6462 12.9827 26.8422 12.796C27.0382 12.6093 27.1362 12.3573 27.1362 12.04C27.1362 11.7507 27.0382 11.5033 26.8422 11.298C26.6462 11.0927 26.3802 10.99 26.0442 10.99H23.5102V13.076H26.0442ZM26.0022 10.066C26.3195 10.066 26.5668 9.982 26.7442 9.814C26.9215 9.63667 27.0102 9.408 27.0102 9.128C27.0102 8.82933 26.9215 8.596 26.7442 8.428C26.5668 8.25067 26.3195 8.162 26.0022 8.162H23.5102V10.066H26.0022ZM31.2621 14H30.2121V7.238H31.2621V10.052H34.7901V7.238H35.8401V14H34.7901V10.976H31.2621V14ZM43.2147 14H42.1647V13.23C41.5954 13.8553 40.8487 14.168 39.9247 14.168C39.2994 14.168 38.7487 13.9673 38.2727 13.566C37.7967 13.1647 37.5587 12.6187 37.5587 11.928C37.5587 11.2187 37.7921 10.6727 38.2587 10.29C38.7347 9.898 39.2901 9.702 39.9247 9.702C40.8861 9.702 41.6327 10.01 42.1647 10.626V9.408C42.1647 8.96 42.0061 8.61 41.6887 8.358C41.3714 8.106 40.9607 7.98 40.4567 7.98C39.6634 7.98 38.9727 8.29267 38.3847 8.918L37.8947 8.19C38.6134 7.44333 39.5141 7.07 40.5967 7.07C41.3714 7.07 42.0014 7.25667 42.4867 7.63C42.9721 8.00333 43.2147 8.57733 43.2147 9.352V14ZM40.3027 13.412C41.1427 13.412 41.7634 13.132 42.1647 12.572V11.298C41.7634 10.738 41.1427 10.458 40.3027 10.458C39.8174 10.458 39.4161 10.598 39.0987 10.878C38.7907 11.1487 38.6367 11.5033 38.6367 11.942C38.6367 12.3713 38.7907 12.726 39.0987 13.006C39.4161 13.2767 39.8174 13.412 40.3027 13.412ZM46.3275 14H45.0955L46.9015 11.34C46.3882 11.2747 45.9682 11.06 45.6415 10.696C45.3242 10.332 45.1655 9.87 45.1655 9.31C45.1655 8.71267 45.3569 8.218 45.7395 7.826C46.1222 7.434 46.6449 7.238 47.3075 7.238H50.8775V14H49.8275V11.382H47.9795L46.3275 14ZM47.4195 10.458H49.8275V8.162H47.4195C47.0555 8.162 46.7662 8.26933 46.5515 8.484C46.3462 8.68933 46.2435 8.96467 46.2435 9.31C46.2435 9.65533 46.3462 9.93533 46.5515 10.15C46.7569 10.3553 47.0462 10.458 47.4195 10.458Z" fill="white"/>
<path d="M107.516 14.168C106.153 14.168 105.01 13.72 104.086 12.824C103.171 11.9187 102.714 10.7567 102.714 9.338C102.714 7.91933 103.171 6.762 104.086 5.866C105.01 4.96067 106.153 4.508 107.516 4.508C109.009 4.508 110.19 5.124 111.058 6.356L110.078 6.902C109.807 6.50067 109.443 6.174 108.986 5.922C108.529 5.67 108.039 5.544 107.516 5.544C106.489 5.544 105.631 5.90333 104.94 6.622C104.259 7.33133 103.918 8.23667 103.918 9.338C103.918 10.4393 104.259 11.3493 104.94 12.068C105.631 12.7773 106.489 13.132 107.516 13.132C108.039 13.132 108.529 13.0107 108.986 12.768C109.443 12.516 109.807 12.1847 110.078 11.774L111.072 12.32C110.167 13.552 108.981 14.168 107.516 14.168ZM115.563 14.168C114.555 14.168 113.729 13.8413 113.085 13.188C112.441 12.5253 112.119 11.6667 112.119 10.612C112.119 9.62267 112.436 8.78733 113.071 8.106C113.706 7.41533 114.499 7.07 115.451 7.07C116.45 7.07 117.238 7.41533 117.817 8.106C118.405 8.78733 118.699 9.65067 118.699 10.696V10.962H113.225C113.272 11.6247 113.514 12.18 113.953 12.628C114.392 13.076 114.961 13.3 115.661 13.3C116.501 13.3 117.196 13.0153 117.747 12.446L118.251 13.132C117.56 13.8227 116.664 14.168 115.563 14.168ZM117.663 10.192C117.654 9.61333 117.458 9.09533 117.075 8.638C116.692 8.17133 116.146 7.938 115.437 7.938C114.765 7.938 114.233 8.16667 113.841 8.624C113.458 9.08133 113.253 9.604 113.225 10.192H117.663ZM125.678 14H124.628V13.23C124.058 13.8553 123.312 14.168 122.388 14.168C121.762 14.168 121.212 13.9673 120.736 13.566C120.26 13.1647 120.022 12.6187 120.022 11.928C120.022 11.2187 120.255 10.6727 120.722 10.29C121.198 9.898 121.753 9.702 122.388 9.702C123.349 9.702 124.096 10.01 124.628 10.626V9.408C124.628 8.96 124.469 8.61 124.152 8.358C123.834 8.106 123.424 7.98 122.92 7.98C122.126 7.98 121.436 8.29267 120.848 8.918L120.358 8.19C121.076 7.44333 121.977 7.07 123.06 7.07C123.834 7.07 124.464 7.25667 124.95 7.63C125.435 8.00333 125.678 8.57733 125.678 9.352V14ZM122.766 13.412C123.606 13.412 124.226 13.132 124.628 12.572V11.298C124.226 10.738 123.606 10.458 122.766 10.458C122.28 10.458 121.879 10.598 121.562 10.878C121.254 11.1487 121.1 11.5033 121.1 11.942C121.1 12.3713 121.254 12.726 121.562 13.006C121.879 13.2767 122.28 13.412 122.766 13.412ZM128.832 14H127.782V7.238H128.832V10.052H132.36V7.238H133.41V14H132.36V10.976H128.832V14ZM138.489 14.168C137.49 14.168 136.678 13.832 136.053 13.16C135.428 12.4787 135.115 11.6293 135.115 10.612C135.115 9.59467 135.428 8.75 136.053 8.078C136.678 7.406 137.49 7.07 138.489 7.07C139.534 7.07 140.36 7.462 140.967 8.246L140.267 8.89C139.838 8.302 139.264 8.008 138.545 8.008C137.836 8.008 137.266 8.25067 136.837 8.736C136.417 9.22133 136.207 9.84667 136.207 10.612C136.207 11.3773 136.417 12.0073 136.837 12.502C137.266 12.9873 137.836 13.23 138.545 13.23C139.254 13.23 139.828 12.936 140.267 12.348L140.967 12.992C140.36 13.776 139.534 14.168 138.489 14.168ZM142.439 7.238H143.489V9.856H146.023C146.695 9.856 147.217 10.0567 147.591 10.458C147.964 10.85 148.151 11.34 148.151 11.928C148.151 12.516 147.959 13.0107 147.577 13.412C147.203 13.804 146.685 14 146.023 14H142.439V7.238ZM145.911 10.78H143.489V13.076H145.911C146.284 13.076 146.569 12.9733 146.765 12.768C146.97 12.5533 147.073 12.2733 147.073 11.928C147.073 11.5827 146.97 11.3073 146.765 11.102C146.569 10.8873 146.284 10.78 145.911 10.78ZM150.307 14H149.257V7.238H150.307V14Z" fill="white"/>
<path d="M207.348 14.168C205.976 14.168 204.861 13.7107 204.002 12.796C203.143 11.8813 202.714 10.7287 202.714 9.338C202.714 7.94733 203.143 6.79467 204.002 5.88C204.861 4.96533 205.976 4.508 207.348 4.508C208.711 4.508 209.821 4.96533 210.68 5.88C211.548 6.79467 211.982 7.94733 211.982 9.338C211.982 10.7287 211.548 11.8813 210.68 12.796C209.821 13.7107 208.711 14.168 207.348 14.168ZM207.348 13.132C208.375 13.132 209.201 12.7773 209.826 12.068C210.461 11.3493 210.778 10.4393 210.778 9.338C210.778 8.22733 210.461 7.31733 209.826 6.608C209.201 5.89867 208.375 5.544 207.348 5.544C206.312 5.544 205.481 5.89867 204.856 6.608C204.231 7.31733 203.918 8.22733 203.918 9.338C203.918 10.4393 204.231 11.3493 204.856 12.068C205.481 12.7773 206.312 13.132 207.348 13.132ZM216.037 14H214.987V8.162H213.027V7.238H218.011V8.162H216.037V14ZM221.782 14.168C220.485 14.168 219.467 13.7993 218.73 13.062L219.248 12.39C219.883 12.9967 220.727 13.3 221.782 13.3C222.389 13.3 222.869 13.1927 223.224 12.978C223.588 12.7633 223.77 12.4787 223.77 12.124C223.77 11.3773 223.061 11.004 221.642 11.004H220.13V10.15H221.642C222.23 10.15 222.711 10.0567 223.084 9.87C223.457 9.674 223.644 9.38933 223.644 9.016C223.644 8.69867 223.457 8.442 223.084 8.246C222.711 8.04067 222.239 7.938 221.67 7.938C220.727 7.938 219.971 8.22733 219.402 8.806L218.856 8.162C219.556 7.44333 220.48 7.084 221.628 7.084C222.552 7.07467 223.299 7.23333 223.868 7.56C224.447 7.87733 224.736 8.32067 224.736 8.89C224.736 9.35667 224.545 9.73467 224.162 10.024C223.789 10.3133 223.373 10.486 222.916 10.542C223.392 10.5793 223.835 10.738 224.246 11.018C224.666 11.298 224.876 11.69 224.876 12.194C224.876 12.7727 224.596 13.2487 224.036 13.622C223.485 13.986 222.734 14.168 221.782 14.168ZM226.579 7.238H227.629V9.856H230.163C230.835 9.856 231.358 10.0567 231.731 10.458C232.105 10.85 232.291 11.34 232.291 11.928C232.291 12.516 232.1 13.0107 231.717 13.412C231.344 13.804 230.826 14 230.163 14H226.579V7.238ZM230.051 10.78H227.629V13.076H230.051C230.425 13.076 230.709 12.9733 230.905 12.768C231.111 12.5533 231.213 12.2733 231.213 11.928C231.213 11.5827 231.111 11.3073 230.905 11.102C230.709 10.8873 230.425 10.78 230.051 10.78ZM234.447 14H233.397V7.238H234.447V14ZM240.34 14H236.546V7.238H240.27C240.858 7.238 241.32 7.39667 241.656 7.714C242.001 8.03133 242.174 8.45133 242.174 8.974C242.174 9.35667 242.067 9.688 241.852 9.968C241.647 10.2387 241.39 10.4207 241.082 10.514C241.427 10.598 241.717 10.7987 241.95 11.116C242.193 11.4333 242.314 11.7833 242.314 12.166C242.314 12.7167 242.137 13.16 241.782 13.496C241.437 13.832 240.956 14 240.34 14ZM240.13 13.076C240.466 13.076 240.732 12.9827 240.928 12.796C241.124 12.6093 241.222 12.3573 241.222 12.04C241.222 11.7507 241.124 11.5033 240.928 11.298C240.732 11.0927 240.466 10.99 240.13 10.99H237.596V13.076H240.13ZM240.088 10.066C240.405 10.066 240.653 9.982 240.83 9.814C241.007 9.63667 241.096 9.408 241.096 9.128C241.096 8.82933 241.007 8.596 240.83 8.428C240.653 8.25067 240.405 8.162 240.088 8.162H237.596V10.066H240.088ZM244.298 7.238H245.348V9.856H247.882C248.554 9.856 249.077 10.0567 249.45 10.458C249.823 10.85 250.01 11.34 250.01 11.928C250.01 12.516 249.819 13.0107 249.436 13.412C249.063 13.804 248.545 14 247.882 14H244.298V7.238ZM247.77 10.78H245.348V13.076H247.77C248.143 13.076 248.428 12.9733 248.624 12.768C248.829 12.5533 248.932 12.2733 248.932 11.928C248.932 11.5827 248.829 11.3073 248.624 11.102C248.428 10.8873 248.143 10.78 247.77 10.78ZM252.166 14H251.116V7.238H252.166V14Z" fill="white"/>
<path d="M312.176 14H310.734L307.192 9.8L306.254 10.864V14H305.092V4.662H306.254V9.492L310.384 4.662H311.84L307.948 9.1L312.176 14ZM318.356 13.146C317.749 13.8273 316.942 14.168 315.934 14.168C314.926 14.168 314.114 13.8273 313.498 13.146C312.891 12.4647 312.588 11.62 312.588 10.612C312.588 9.604 312.891 8.764 313.498 8.092C314.114 7.41067 314.926 7.07 315.934 7.07C316.942 7.07 317.749 7.41067 318.356 8.092C318.972 8.764 319.28 9.604 319.28 10.612C319.28 11.62 318.972 12.4647 318.356 13.146ZM314.282 12.474C314.692 12.978 315.243 13.23 315.934 13.23C316.624 13.23 317.17 12.978 317.572 12.474C317.973 11.9607 318.174 11.34 318.174 10.612C318.174 9.884 317.973 9.268 317.572 8.764C317.17 8.26 316.624 8.008 315.934 8.008C315.243 8.008 314.692 8.26467 314.282 8.778C313.88 9.282 313.68 9.89333 313.68 10.612C313.68 11.34 313.88 11.9607 314.282 12.474ZM322.041 14H320.991V7.238H322.041V10.052H325.569V7.238H326.619V14H325.569V10.976H322.041V14ZM330.998 14H329.948V8.162H327.988V7.238H332.972V8.162H330.998V14ZM339.627 14H338.577V13.23C338.007 13.8553 337.261 14.168 336.337 14.168C335.711 14.168 335.161 13.9673 334.685 13.566C334.209 13.1647 333.971 12.6187 333.971 11.928C333.971 11.2187 334.204 10.6727 334.671 10.29C335.147 9.898 335.702 9.702 336.337 9.702C337.298 9.702 338.045 10.01 338.577 10.626V9.408C338.577 8.96 338.418 8.61 338.101 8.358C337.783 8.106 337.373 7.98 336.869 7.98C336.075 7.98 335.385 8.29267 334.797 8.918L334.307 8.19C335.025 7.44333 335.926 7.07 337.009 7.07C337.783 7.07 338.413 7.25667 338.899 7.63C339.384 8.00333 339.627 8.57733 339.627 9.352V14ZM336.715 13.412C337.555 13.412 338.175 13.132 338.577 12.572V11.298C338.175 10.738 337.555 10.458 336.715 10.458C336.229 10.458 335.828 10.598 335.511 10.878C335.203 11.1487 335.049 11.5033 335.049 11.942C335.049 12.3713 335.203 12.726 335.511 13.006C335.828 13.2767 336.229 13.412 336.715 13.412ZM347.682 14H346.338L343.902 10.962L342.782 12.068V14H341.732V7.238H342.782V10.836L346.338 7.238H347.668L344.672 10.304L347.682 14ZM351.205 14H350.155V8.162H348.195V7.238H353.179V8.162H351.205V14ZM354.556 7.238H355.606V9.856H358.14C358.812 9.856 359.335 10.0567 359.708 10.458C360.081 10.85 360.268 11.34 360.268 11.928C360.268 12.516 360.077 13.0107 359.694 13.412C359.321 13.804 358.803 14 358.14 14H354.556V7.238ZM358.028 10.78H355.606V13.076H358.028C358.401 13.076 358.686 12.9733 358.882 12.768C359.087 12.5533 359.19 12.2733 359.19 11.928C359.19 11.5827 359.087 11.3073 358.882 11.102C358.686 10.8873 358.401 10.78 358.028 10.78ZM362.424 14H361.374V7.238H362.424V14Z" fill="white"/>
<path d="M422.876 14H421.714V9.716H416.254V14H415.092V4.662H416.254V8.68H421.714V4.662H422.876V14ZM430.393 13.146C429.786 13.8273 428.979 14.168 427.971 14.168C426.963 14.168 426.151 13.8273 425.535 13.146C424.928 12.4647 424.625 11.62 424.625 10.612C424.625 9.604 424.928 8.764 425.535 8.092C426.151 7.41067 426.963 7.07 427.971 7.07C428.979 7.07 429.786 7.41067 430.393 8.092C431.009 8.764 431.317 9.604 431.317 10.612C431.317 11.62 431.009 12.4647 430.393 13.146ZM426.319 12.474C426.729 12.978 427.28 13.23 427.971 13.23C428.661 13.23 429.207 12.978 429.609 12.474C430.01 11.9607 430.211 11.34 430.211 10.612C430.211 9.884 430.01 9.268 429.609 8.764C429.207 8.26 428.661 8.008 427.971 8.008C427.28 8.008 426.729 8.26467 426.319 8.778C425.917 9.282 425.717 9.89333 425.717 10.612C425.717 11.34 425.917 11.9607 426.319 12.474ZM436.823 14H433.029V7.238H436.753C437.341 7.238 437.803 7.39667 438.139 7.714C438.484 8.03133 438.657 8.45133 438.657 8.974C438.657 9.35667 438.549 9.688 438.335 9.968C438.129 10.2387 437.873 10.4207 437.565 10.514C437.91 10.598 438.199 10.7987 438.433 11.116C438.675 11.4333 438.797 11.7833 438.797 12.166C438.797 12.7167 438.619 13.16 438.265 13.496C437.919 13.832 437.439 14 436.823 14ZM436.613 13.076C436.949 13.076 437.215 12.9827 437.411 12.796C437.607 12.6093 437.705 12.3573 437.705 12.04C437.705 11.7507 437.607 11.5033 437.411 11.298C437.215 11.0927 436.949 10.99 436.613 10.99H434.079V13.076H436.613ZM436.571 10.066C436.888 10.066 437.135 9.982 437.313 9.814C437.49 9.63667 437.579 9.408 437.579 9.128C437.579 8.82933 437.49 8.596 437.313 8.428C437.135 8.25067 436.888 8.162 436.571 8.162H434.079V10.066H436.571ZM446.156 13.146C445.55 13.8273 444.742 14.168 443.734 14.168C442.726 14.168 441.914 13.8273 441.298 13.146C440.692 12.4647 440.388 11.62 440.388 10.612C440.388 9.604 440.692 8.764 441.298 8.092C441.914 7.41067 442.726 7.07 443.734 7.07C444.742 7.07 445.55 7.41067 446.156 8.092C446.772 8.764 447.08 9.604 447.08 10.612C447.08 11.62 446.772 12.4647 446.156 13.146ZM442.082 12.474C442.493 12.978 443.044 13.23 443.734 13.23C444.425 13.23 444.971 12.978 445.372 12.474C445.774 11.9607 445.974 11.34 445.974 10.612C445.974 9.884 445.774 9.268 445.372 8.764C444.971 8.26 444.425 8.008 443.734 8.008C443.044 8.008 442.493 8.26467 442.082 8.778C441.681 9.282 441.48 9.89333 441.48 10.612C441.48 11.34 441.681 11.9607 442.082 12.474ZM451.774 14.168C450.776 14.168 449.964 13.832 449.338 13.16C448.713 12.4787 448.4 11.6293 448.4 10.612C448.4 9.59467 448.713 8.75 449.338 8.078C449.964 7.406 450.776 7.07 451.774 7.07C452.82 7.07 453.646 7.462 454.252 8.246L453.552 8.89C453.123 8.302 452.549 8.008 451.83 8.008C451.121 8.008 450.552 8.25067 450.122 8.736C449.702 9.22133 449.492 9.84667 449.492 10.612C449.492 11.3773 449.702 12.0073 450.122 12.502C450.552 12.9873 451.121 13.23 451.83 13.23C452.54 13.23 453.114 12.936 453.552 12.348L454.252 12.992C453.646 13.776 452.82 14.168 451.774 14.168ZM458.006 14H456.956V8.162H454.996V7.238H459.98V8.162H458.006V14ZM462.365 14H461.357V7.238H462.407V12.404L465.949 7.238H466.985V14H465.935V8.736L462.365 14Z" fill="white"/>
<path d="M524.348 14.168C522.976 14.168 521.861 13.7107 521.002 12.796C520.143 11.8813 519.714 10.7287 519.714 9.338C519.714 7.94733 520.143 6.79467 521.002 5.88C521.861 4.96533 522.976 4.508 524.348 4.508C525.711 4.508 526.821 4.96533 527.68 5.88C528.548 6.79467 528.982 7.94733 528.982 9.338C528.982 10.7287 528.548 11.8813 527.68 12.796C526.821 13.7107 525.711 14.168 524.348 14.168ZM524.348 13.132C525.375 13.132 526.201 12.7773 526.826 12.068C527.461 11.3493 527.778 10.4393 527.778 9.338C527.778 8.22733 527.461 7.31733 526.826 6.608C526.201 5.89867 525.375 5.544 524.348 5.544C523.312 5.544 522.481 5.89867 521.856 6.608C521.231 7.31733 520.918 8.22733 520.918 9.338C520.918 10.4393 521.231 11.3493 521.856 12.068C522.481 12.7773 523.312 13.132 524.348 13.132ZM532.057 12.474C532.468 12.978 533.018 13.23 533.709 13.23C534.4 13.23 534.946 12.978 535.347 12.474C535.748 11.9607 535.949 11.3353 535.949 10.598C535.949 9.87933 535.748 9.268 535.347 8.764C534.946 8.26 534.4 8.008 533.709 8.008C533.018 8.008 532.468 8.26 532.057 8.764C531.656 9.268 531.455 9.87933 531.455 10.598C531.455 11.3353 531.656 11.9607 532.057 12.474ZM533.709 14.168C532.692 14.168 531.88 13.8087 531.273 13.09C530.666 12.3713 530.363 11.4427 530.363 10.304C530.363 8.69867 530.652 7.51333 531.231 6.748C531.81 5.97333 532.701 5.50667 533.905 5.348C534.624 5.236 535.118 5.12867 535.389 5.026C535.669 4.92333 535.809 4.802 535.809 4.662H536.831C536.831 4.92333 536.752 5.152 536.593 5.348C536.434 5.53467 536.206 5.684 535.907 5.796C535.618 5.908 535.342 5.99667 535.081 6.062C534.829 6.118 534.526 6.16933 534.171 6.216C533.238 6.34667 532.561 6.60333 532.141 6.986C531.73 7.36867 531.46 7.87733 531.329 8.512C531.945 7.55067 532.794 7.07 533.877 7.07C534.81 7.07 535.571 7.41067 536.159 8.092C536.747 8.77333 537.041 9.60867 537.041 10.598C537.041 11.606 536.738 12.4553 536.131 13.146C535.524 13.8273 534.717 14.168 533.709 14.168ZM544.211 13.146C543.604 13.8273 542.797 14.168 541.789 14.168C540.781 14.168 539.969 13.8273 539.353 13.146C538.746 12.4647 538.443 11.62 538.443 10.612C538.443 9.604 538.746 8.764 539.353 8.092C539.969 7.41067 540.781 7.07 541.789 7.07C542.797 7.07 543.604 7.41067 544.211 8.092C544.827 8.764 545.135 9.604 545.135 10.612C545.135 11.62 544.827 12.4647 544.211 13.146ZM540.137 12.474C540.548 12.978 541.098 13.23 541.789 13.23C542.48 13.23 543.026 12.978 543.427 12.474C543.828 11.9607 544.029 11.34 544.029 10.612C544.029 9.884 543.828 9.268 543.427 8.764C543.026 8.26 542.48 8.008 541.789 8.008C541.098 8.008 540.548 8.26467 540.137 8.778C539.736 9.282 539.535 9.89333 539.535 10.612C539.535 11.34 539.736 11.9607 540.137 12.474ZM557.358 14H556.308V8.694L554.11 14H553.718L551.506 8.694V14H550.456V7.238H551.842L553.914 12.25L555.958 7.238H557.358V14ZM560.502 14H559.452V7.238H560.502V10.052H564.03V7.238H565.08V14H564.03V10.976H560.502V14ZM570.229 14.168C569.221 14.168 568.395 13.8413 567.751 13.188C567.107 12.5253 566.785 11.6667 566.785 10.612C566.785 9.62267 567.102 8.78733 567.737 8.106C568.372 7.41533 569.165 7.07 570.117 7.07C571.116 7.07 571.904 7.41533 572.483 8.106C573.071 8.78733 573.365 9.65067 573.365 10.696V10.962H567.891C567.938 11.6247 568.18 12.18 568.619 12.628C569.058 13.076 569.627 13.3 570.327 13.3C571.167 13.3 571.862 13.0153 572.413 12.446L572.917 13.132C572.226 13.8227 571.33 14.168 570.229 14.168ZM572.329 10.192C572.32 9.61333 572.124 9.09533 571.741 8.638C571.358 8.17133 570.812 7.938 570.103 7.938C569.431 7.938 568.899 8.16667 568.507 8.624C568.124 9.08133 567.919 9.604 567.891 10.192H572.329Z" fill="white"/>
<path d="M626.092 4.662H632.154V5.698H627.254V8.372H629.844C630.74 8.372 631.449 8.64267 631.972 9.184C632.504 9.72533 632.77 10.3927 632.77 11.186C632.77 11.9793 632.509 12.6467 631.986 13.188C631.463 13.7293 630.749 14 629.844 14H626.092V4.662ZM629.704 9.408H627.254V12.964H629.704C630.255 12.964 630.703 12.8007 631.048 12.474C631.393 12.138 631.566 11.7087 631.566 11.186C631.566 10.6633 631.393 10.2387 631.048 9.912C630.703 9.576 630.255 9.408 629.704 9.408ZM633.332 14.168V13.3C633.649 13.3 633.911 13.09 634.116 12.67C634.321 12.25 634.489 11.55 634.62 10.57L635.054 7.238H639.758V14H638.708V8.162H635.978L635.67 10.696C635.521 11.9373 635.259 12.8287 634.886 13.37C634.513 13.902 633.995 14.168 633.332 14.168ZM647.231 13.146C646.624 13.8273 645.817 14.168 644.809 14.168C643.801 14.168 642.989 13.8273 642.373 13.146C641.766 12.4647 641.463 11.62 641.463 10.612C641.463 9.604 641.766 8.764 642.373 8.092C642.989 7.41067 643.801 7.07 644.809 7.07C645.817 7.07 646.624 7.41067 647.231 8.092C647.847 8.764 648.155 9.604 648.155 10.612C648.155 11.62 647.847 12.4647 647.231 13.146ZM643.157 12.474C643.567 12.978 644.118 13.23 644.809 13.23C645.499 13.23 646.045 12.978 646.447 12.474C646.848 11.9607 647.049 11.34 647.049 10.612C647.049 9.884 646.848 9.268 646.447 8.764C646.045 8.26 645.499 8.008 644.809 8.008C644.118 8.008 643.567 8.26467 643.157 8.778C642.755 9.282 642.555 9.89333 642.555 10.612C642.555 11.34 642.755 11.9607 643.157 12.474ZM654.598 7.238V8.162H650.916V14H649.866V7.238H654.598Z" fill="white"/>
</svg>
