<svg width="155" height="36" viewBox="0 0 155 36" fill="none" xmlns="http://www.w3.org/2000/svg">
<rect width="155" height="36" rx="3" fill="#018ABE"/>
<path d="M18.744 22.156C17.9987 22.156 17.314 22.026 16.69 21.766C16.0747 21.4973 15.6153 21.1593 15.312 20.752L16.131 19.751C16.4083 20.0717 16.7853 20.3273 17.262 20.518C17.7387 20.7087 18.2153 20.804 18.692 20.804C19.3073 20.804 19.7883 20.687 20.135 20.453C20.4903 20.2103 20.668 19.8853 20.668 19.478C20.668 18.6633 19.9703 18.256 18.575 18.256H16.833V16.917H18.575C19.1557 16.917 19.6237 16.8217 19.979 16.631C20.343 16.4403 20.525 16.1543 20.525 15.773C20.525 15.383 20.343 15.084 19.979 14.876C19.615 14.6593 19.1557 14.551 18.601 14.551C17.6477 14.551 16.8503 14.8717 16.209 15.513L15.429 14.564C15.7757 14.1567 16.2393 13.8273 16.82 13.576C17.4093 13.3247 18.0507 13.199 18.744 13.199C19.706 13.199 20.4947 13.4113 21.11 13.836C21.734 14.2607 22.046 14.8283 22.046 15.539C22.046 16.0763 21.8553 16.5227 21.474 16.878C21.1013 17.2247 20.6637 17.4413 20.161 17.528C20.655 17.5713 21.1143 17.7793 21.539 18.152C21.9637 18.5247 22.176 19.0187 22.176 19.634C22.176 20.3707 21.851 20.9773 21.201 21.454C20.5597 21.922 19.7407 22.156 18.744 22.156ZM28.8662 22H27.5012V21.324C27.0159 21.8787 26.3399 22.156 25.4732 22.156C24.9012 22.156 24.3942 21.974 23.9522 21.61C23.5102 21.2373 23.2892 20.726 23.2892 20.076C23.2892 19.4087 23.5059 18.9017 23.9392 18.555C24.3812 18.2083 24.8926 18.035 25.4732 18.035C26.3659 18.035 27.0419 18.3037 27.5012 18.841V17.905C27.5012 17.541 27.3669 17.255 27.0982 17.047C26.8296 16.839 26.4742 16.735 26.0322 16.735C25.3302 16.735 24.7106 16.9993 24.1732 17.528L23.6142 16.579C24.3249 15.903 25.2046 15.565 26.2532 15.565C27.0246 15.565 27.6529 15.747 28.1382 16.111C28.6236 16.475 28.8662 17.0513 28.8662 17.84V22ZM26.0062 21.22C26.6909 21.22 27.1892 21.0033 27.5012 20.57V19.621C27.1892 19.1877 26.6909 18.971 26.0062 18.971C25.6162 18.971 25.2956 19.075 25.0442 19.283C24.7929 19.491 24.6672 19.764 24.6672 20.102C24.6672 20.44 24.7929 20.713 25.0442 20.921C25.2956 21.1203 25.6162 21.22 26.0062 21.22ZM36.252 22H34.887V16.917H32.001V22H30.636V15.721H36.252V22ZM39.3376 22H38.0246V15.721H39.3896V19.946L42.2756 15.721H43.6406V22H42.2756V17.658L39.3376 22ZM48.2733 22.156C47.32 22.156 46.54 21.8483 45.9333 21.233C45.3266 20.609 45.0233 19.816 45.0233 18.854C45.0233 17.9007 45.3266 17.1163 45.9333 16.501C46.54 15.877 47.32 15.565 48.2733 15.565C49.322 15.565 50.1236 15.9377 50.6783 16.683L49.7813 17.515C49.4346 17.021 48.9536 16.774 48.3383 16.774C47.7663 16.774 47.307 16.969 46.9603 17.359C46.6136 17.7403 46.4403 18.2387 46.4403 18.854C46.4403 19.4693 46.6136 19.972 46.9603 20.362C47.307 20.752 47.7663 20.947 48.3383 20.947C48.9363 20.947 49.4173 20.7 49.7813 20.206L50.6783 21.038C50.1236 21.7833 49.322 22.156 48.2733 22.156ZM57.0752 22H55.7102V21.324C55.2249 21.8787 54.5489 22.156 53.6822 22.156C53.1102 22.156 52.6032 21.974 52.1612 21.61C51.7192 21.2373 51.4982 20.726 51.4982 20.076C51.4982 19.4087 51.7149 18.9017 52.1482 18.555C52.5902 18.2083 53.1015 18.035 53.6822 18.035C54.5749 18.035 55.2509 18.3037 55.7102 18.841V17.905C55.7102 17.541 55.5759 17.255 55.3072 17.047C55.0385 16.839 54.6832 16.735 54.2412 16.735C53.5392 16.735 52.9195 16.9993 52.3822 17.528L51.8232 16.579C52.5339 15.903 53.4135 15.565 54.4622 15.565C55.2335 15.565 55.8619 15.747 56.3472 16.111C56.8325 16.475 57.0752 17.0513 57.0752 17.84V22ZM54.2152 21.22C54.8999 21.22 55.3982 21.0033 55.7102 20.57V19.621C55.3982 19.1877 54.8999 18.971 54.2152 18.971C53.8252 18.971 53.5045 19.075 53.2532 19.283C53.0019 19.491 52.8762 19.764 52.8762 20.102C52.8762 20.44 53.0019 20.713 53.2532 20.921C53.5045 21.1203 53.8252 21.22 54.2152 21.22ZM61.3539 22H59.9889V16.917H58.1949V15.721H63.1609V16.917H61.3539V22ZM64.2785 15.721H65.6435V17.996H67.8665C68.5339 17.996 69.0452 18.1867 69.4005 18.568C69.7645 18.9493 69.9465 19.426 69.9465 19.998C69.9465 20.5613 69.7602 21.038 69.3875 21.428C69.0235 21.8093 68.5165 22 67.8665 22H64.2785V15.721ZM67.6975 19.192H65.6435V20.804H67.6975C67.9662 20.804 68.1742 20.7303 68.3215 20.583C68.4775 20.4357 68.5555 20.2407 68.5555 19.998C68.5555 19.7553 68.4775 19.5603 68.3215 19.413C68.1742 19.2657 67.9662 19.192 67.6975 19.192ZM74.159 22.156C73.2057 22.156 72.4257 21.8483 71.819 21.233C71.2124 20.609 70.909 19.816 70.909 18.854C70.909 17.9007 71.2124 17.1163 71.819 16.501C72.4257 15.877 73.2057 15.565 74.159 15.565C75.2077 15.565 76.0094 15.9377 76.564 16.683L75.667 17.515C75.3204 17.021 74.8394 16.774 74.224 16.774C73.652 16.774 73.1927 16.969 72.846 17.359C72.4994 17.7403 72.326 18.2387 72.326 18.854C72.326 19.4693 72.4994 19.972 72.846 20.362C73.1927 20.752 73.652 20.947 74.224 20.947C74.822 20.947 75.303 20.7 75.667 20.206L76.564 21.038C76.0094 21.7833 75.2077 22.156 74.159 22.156ZM79.1 22H77.54L79.087 19.66C78.6536 19.5647 78.2983 19.348 78.021 19.01C77.7523 18.672 77.618 18.243 77.618 17.723C77.618 17.1597 77.8 16.6873 78.164 16.306C78.5366 15.916 79.048 15.721 79.698 15.721H83.286V22H81.921V19.725H80.478L79.1 22ZM79.867 18.529H81.921V16.917H79.867C79.607 16.917 79.399 16.995 79.243 17.151C79.087 17.2983 79.009 17.489 79.009 17.723C79.009 17.9657 79.0826 18.1607 79.23 18.308C79.386 18.4553 79.5983 18.529 79.867 18.529ZM89.7519 22H88.3869V15.721H89.7519V18.191H92.6379V15.721H94.0029V22H92.6379V19.387H89.7519V22ZM100.976 22H99.6106V21.324C99.1253 21.8787 98.4493 22.156 97.5826 22.156C97.0106 22.156 96.5036 21.974 96.0616 21.61C95.6196 21.2373 95.3986 20.726 95.3986 20.076C95.3986 19.4087 95.6153 18.9017 96.0486 18.555C96.4906 18.2083 97.0019 18.035 97.5826 18.035C98.4753 18.035 99.1513 18.3037 99.6106 18.841V17.905C99.6106 17.541 99.4763 17.255 99.2076 17.047C98.9389 16.839 98.5836 16.735 98.1416 16.735C97.4396 16.735 96.8199 16.9993 96.2826 17.528L95.7236 16.579C96.4343 15.903 97.3139 15.565 98.3626 15.565C99.1339 15.565 99.7623 15.747 100.248 16.111C100.733 16.475 100.976 17.0513 100.976 17.84V22ZM98.1156 21.22C98.8003 21.22 99.2986 21.0033 99.6106 20.57V19.621C99.2986 19.1877 98.8003 18.971 98.1156 18.971C97.7256 18.971 97.4049 19.075 97.1536 19.283C96.9023 19.491 96.7766 19.764 96.7766 20.102C96.7766 20.44 96.9023 20.713 97.1536 20.921C97.4049 21.1203 97.7256 21.22 98.1156 21.22ZM108.944 22.156C107.991 22.156 107.211 21.8483 106.604 21.233C105.998 20.609 105.694 19.816 105.694 18.854C105.694 17.9007 105.998 17.1163 106.604 16.501C107.211 15.877 107.991 15.565 108.944 15.565C109.993 15.565 110.795 15.9377 111.349 16.683L110.452 17.515C110.106 17.021 109.625 16.774 109.009 16.774C108.437 16.774 107.978 16.969 107.631 17.359C107.285 17.7403 107.111 18.2387 107.111 18.854C107.111 19.4693 107.285 19.972 107.631 20.362C107.978 20.752 108.437 20.947 109.009 20.947C109.607 20.947 110.088 20.7 110.452 20.206L111.349 21.038C110.795 21.7833 109.993 22.156 108.944 22.156ZM115.445 22.156C114.492 22.156 113.703 21.8527 113.079 21.246C112.464 20.6307 112.156 19.8333 112.156 18.854C112.156 17.9353 112.455 17.1597 113.053 16.527C113.66 15.8857 114.422 15.565 115.341 15.565C116.268 15.565 117.014 15.8857 117.577 16.527C118.149 17.1683 118.435 17.9873 118.435 18.984V19.309H113.586C113.638 19.803 113.842 20.2147 114.197 20.544C114.552 20.8733 115.016 21.038 115.588 21.038C115.909 21.038 116.229 20.9773 116.55 20.856C116.879 20.7347 117.152 20.5657 117.369 20.349L117.993 21.246C117.36 21.8527 116.511 22.156 115.445 22.156ZM117.109 18.347C117.092 17.9137 116.931 17.528 116.628 17.19C116.333 16.852 115.904 16.683 115.341 16.683C114.804 16.683 114.383 16.852 114.08 17.19C113.777 17.5193 113.608 17.905 113.573 18.347H117.109ZM124.982 22H123.617V21.324C123.132 21.8787 122.456 22.156 121.589 22.156C121.017 22.156 120.51 21.974 120.068 21.61C119.626 21.2373 119.405 20.726 119.405 20.076C119.405 19.4087 119.622 18.9017 120.055 18.555C120.497 18.2083 121.009 18.035 121.589 18.035C122.482 18.035 123.158 18.3037 123.617 18.841V17.905C123.617 17.541 123.483 17.255 123.214 17.047C122.946 16.839 122.59 16.735 122.148 16.735C121.446 16.735 120.827 16.9993 120.289 17.528L119.73 16.579C120.441 15.903 121.321 15.565 122.369 15.565C123.141 15.565 123.769 15.747 124.254 16.111C124.74 16.475 124.982 17.0513 124.982 17.84V22ZM122.122 21.22C122.807 21.22 123.305 21.0033 123.617 20.57V19.621C123.305 19.1877 122.807 18.971 122.122 18.971C121.732 18.971 121.412 19.075 121.16 19.283C120.909 19.491 120.783 19.764 120.783 20.102C120.783 20.44 120.909 20.713 121.16 20.921C121.412 21.1203 121.732 21.22 122.122 21.22ZM128.117 22H126.752V15.721H128.117V18.191H131.003V15.721H132.368V22H131.003V19.387H128.117V22ZM137.001 22.156C136.048 22.156 135.268 21.8483 134.661 21.233C134.054 20.609 133.751 19.816 133.751 18.854C133.751 17.9007 134.054 17.1163 134.661 16.501C135.268 15.877 136.048 15.565 137.001 15.565C138.05 15.565 138.851 15.9377 139.406 16.683L138.509 17.515C138.162 17.021 137.681 16.774 137.066 16.774C136.494 16.774 136.035 16.969 135.688 17.359C135.341 17.7403 135.168 18.2387 135.168 18.854C135.168 19.4693 135.341 19.972 135.688 20.362C136.035 20.752 136.494 20.947 137.066 20.947C137.664 20.947 138.145 20.7 138.509 20.206L139.406 21.038C138.851 21.7833 138.05 22.156 137.001 22.156Z" fill="white"/>
</svg>
